<?xml version="1.0" encoding="UTF-8"?>
<svg id="_レイヤー_2" data-name="レイヤー 2" xmlns="http://www.w3.org/2000/svg" viewBox="0 0 119.919 47.604">
  <defs>
    <style>
      .cls-1 {
        fill: #231815;
      }
    </style>
  </defs>
  <g id="_レイヤー_1-2" data-name="レイヤー 1">
    <g>
      <path class="cls-1" d="M71.71,23.5v-11.688c0-6.514-5.3-11.812-11.813-11.812s-11.812,5.299-11.812,11.812v11.688h11.573v-5.265c0-.132.107-.24.24-.24s.239.107.239.24v5.265h11.574ZM59.897,14.68c-.132,0-.24-.107-.24-.239v-3.545c0-.132.107-.24.24-.24s.239.107.239.24v3.545c0,.132-.107.239-.239.239Z"/>
      <g>
        <path class="cls-1" d="M59.782,35.792c0,.127.229.126.23,0,0-.063-.052-.114-.115-.114-.063,0-.115.051-.115.114ZM59.959,35.792c0,.034-.028.062-.062.062s-.062-.028-.062-.062.028-.062.062-.062.062.028.062.062Z"/>
        <path class="cls-1" d="M48.084,35.792c0,6.514,5.299,11.812,11.812,11.812h0c6.513,0,11.813-5.299,11.813-11.812s-5.3-11.812-11.813-11.812-11.812,5.299-11.812,11.812ZM60.136,35.792c0,.132-.107.239-.24.239s-.239-.107-.239-.239.107-.239.239-.239.24.107.24.239Z"/>
      </g>
      <path class="cls-1" d="M95.814,47.604V11.812c0-6.514-5.3-11.812-11.813-11.812s-11.812,5.299-11.812,11.812v35.792h11.574V10.895c0-.132.106-.24.238-.24s.239.107.239.24v36.709h11.574Z"/>
      <path class="cls-1" d="M47.604,47.604V11.812c0-6.514-5.299-11.812-11.812-11.812s-11.808,5.295-11.812,11.804h-.354c-.005-6.509-5.304-11.804-11.812-11.804S0,5.299,0,11.812v35.792h11.573V10.895c0-.132.107-.24.24-.24s.24.107.24.24v36.709h23.5V10.895c0-.132.107-.24.24-.24s.24.107.24.24v36.709h11.573Z"/>
      <path class="cls-1" d="M108.106,0c-6.514,0-11.813,5.299-11.813,11.812v23.979c0,6.514,5.3,11.812,11.813,11.812s11.812-5.299,11.812-11.812V11.812c0-6.514-5.299-11.812-11.812-11.812ZM108.345,36.709c0,.132-.106.239-.238.239s-.239-.107-.239-.239V10.895c0-.132.107-.24.239-.24s.238.107.238.24v25.814Z"/>
    </g>
  </g>
</svg>